<svg id="Layer_1" data-name="Layer 1" xmlns="http://www.w3.org/2000/svg" xmlns:xlink="http://www.w3.org/1999/xlink" viewBox="0 0 881 468"><defs><style>.cls-1,.cls-11,.cls-12,.cls-13,.cls-14,.cls-15,.cls-2,.cls-3,.cls-4,.cls-5,.cls-6,.cls-7{fill:none;}.cls-2{stroke:url(#linear-gradient);}.cls-3{stroke:url(#linear-gradient-2);}.cls-4{stroke:url(#linear-gradient-3);}.cls-5{stroke:url(#linear-gradient-4);}.cls-6{stroke:url(#linear-gradient-5);}.cls-7{stroke:url(#linear-gradient-6);}.cls-8{fill:url(#radial-gradient);}.cls-9{fill:#251c31;}.cls-10{fill:url(#linear-gradient-7);}.cls-11{stroke:url(#linear-gradient-8);}.cls-12{stroke:url(#linear-gradient-9);}.cls-13{stroke:url(#linear-gradient-10);}.cls-14{stroke:url(#linear-gradient-11);}.cls-15{stroke:url(#linear-gradient-12);}.cls-16{fill:url(#linear-gradient-13);}.cls-17{fill:url(#linear-gradient-14);}.cls-18{fill:url(#linear-gradient-15);}.cls-19,.cls-27{fill-rule:evenodd;}.cls-19{fill:url(#linear-gradient-16);}.cls-20{fill:url(#linear-gradient-17);}.cls-21,.cls-47{fill:#fff;}.cls-22{fill:url(#linear-gradient-18);}.cls-23{fill:url(#linear-gradient-19);}.cls-24{fill:url(#linear-gradient-20);}.cls-25{fill:url(#linear-gradient-21);}.cls-26{fill:url(#linear-gradient-22);}.cls-27{fill:url(#linear-gradient-23);}.cls-28{fill:#e44d26;}.cls-29{fill:#f16529;}.cls-30{fill:#ebebeb;}.cls-31{fill:#1572b6;}.cls-32{fill:#33a9dc;}.cls-33{fill:#f7df1e;}.cls-34{fill:#61dafb;}.cls-35{clip-path:url(#clip-path);}.cls-36{fill:#00749a;}.cls-37{fill:#464342;}.cls-38{fill:url(#linear-gradient-24);}.cls-39{fill:url(#linear-gradient-25);}.cls-40{fill:url(#linear-gradient-26);}.cls-41{fill:url(#linear-gradient-27);}.cls-42{fill:url(#linear-gradient-28);}.cls-43{fill:url(#linear-gradient-29);}.cls-44{fill:url(#linear-gradient-30);}.cls-45{fill:url(#linear-gradient-31);}.cls-46{fill:url(#linear-gradient-32);}.cls-47{font-size:97.89px;font-family:ARDESTINE, AR DESTINE;}</style><linearGradient id="linear-gradient" x1="522.72" y1="459.5" x2="522.72" y2="182" gradientTransform="matrix(1, 0, 0, -1, 0, 756)" gradientUnits="userSpaceOnUse"><stop offset="0" stop-color="#3d1768"/><stop offset="1" stop-color="#3d1768" stop-opacity="0"/></linearGradient><linearGradient id="linear-gradient-2" x1="487.19" y1="442.5" x2="487.19" y2="172.5" xlink:href="#linear-gradient"/><linearGradient id="linear-gradient-3" x1="453.74" y1="427" x2="453.74" y2="156" xlink:href="#linear-gradient"/><linearGradient id="linear-gradient-4" x1="362.54" y1="425" x2="362.54" y2="149.5" xlink:href="#linear-gradient"/><linearGradient id="linear-gradient-5" x1="398.12" y1="427" x2="398.12" y2="140" xlink:href="#linear-gradient"/><linearGradient id="linear-gradient-6" x1="424.51" y1="421" x2="424.51" y2="124" xlink:href="#linear-gradient"/><radialGradient id="radial-gradient" cx="-299.83" cy="1129.11" r="1" gradientTransform="matrix(0, 165, 271, 0, -305538, 49775)" gradientUnits="userSpaceOnUse"><stop offset="0" stop-color="#763cac"/><stop offset="1" stop-color="#320f85" stop-opacity="0"/></radialGradient><linearGradient id="linear-gradient-7" x1="440" y1="308" x2="440" y2="128" gradientTransform="matrix(1, 0, 0, -1, 0, 484)" gradientUnits="userSpaceOnUse"><stop offset="0" stop-color="#301080" stop-opacity="0.6"/><stop offset="1" stop-color="#7840ad" stop-opacity="0.36"/></linearGradient><linearGradient id="linear-gradient-8" x1="440.5" y1="299" x2="440.5" y2="30" gradientTransform="matrix(1, 0, 0, -1, 0, 756)" gradientUnits="userSpaceOnUse"><stop offset="0" stop-opacity="0"/><stop offset="0.48" stop-color="#763cac"/></linearGradient><linearGradient id="linear-gradient-9" x1="445" y1="299" x2="445" y2="30" xlink:href="#linear-gradient-8"/><linearGradient id="linear-gradient-10" x1="455.5" y1="299" x2="455.5" y2="30" xlink:href="#linear-gradient-8"/><linearGradient id="linear-gradient-11" x1="445" y1="371" x2="445" y2="96" gradientTransform="matrix(1, 0, 0, -1, 0, 756)" gradientUnits="userSpaceOnUse"><stop offset="0.2" stop-opacity="0"/><stop offset="1" stop-color="#763cac"/></linearGradient><linearGradient id="linear-gradient-12" x1="444.5" y1="280" x2="444.5" y2="116" xlink:href="#linear-gradient-11"/><linearGradient id="linear-gradient-13" x1="843.05" y1="220.69" x2="843.05" y2="199.82" gradientTransform="matrix(1, 0, 0, -1, 0, 756)" gradientUnits="userSpaceOnUse"><stop offset="0" stop-color="#693b93" stop-opacity="0.53"/><stop offset="1" stop-color="#693b93"/></linearGradient><linearGradient id="linear-gradient-14" x1="843.04" y1="212.43" x2="843.04" y2="208.07" xlink:href="#linear-gradient-13"/><linearGradient id="linear-gradient-15" x1="777.5" y1="251.01" x2="777.5" y2="235.85" xlink:href="#linear-gradient-13"/><linearGradient id="linear-gradient-16" x1="771.5" y1="80.75" x2="771.5" y2="61.5" xlink:href="#linear-gradient-13"/><linearGradient id="linear-gradient-17" x1="839.8" y1="153.39" x2="839.8" y2="137.93" xlink:href="#linear-gradient-13"/><linearGradient id="linear-gradient-18" x1="724.83" y1="239.98" x2="724.83" y2="232.33" xlink:href="#linear-gradient-13"/><linearGradient id="linear-gradient-19" x1="724.84" y1="243.81" x2="724.84" y2="236.18" xlink:href="#linear-gradient-13"/><linearGradient id="linear-gradient-20" x1="713.48" y1="243.82" x2="713.48" y2="236.17" xlink:href="#linear-gradient-13"/><linearGradient id="linear-gradient-21" x1="713.48" y1="239.97" x2="713.48" y2="232.34" xlink:href="#linear-gradient-13"/><linearGradient id="linear-gradient-22" x1="193" y1="272" x2="193" y2="257.26" xlink:href="#linear-gradient-13"/><linearGradient id="linear-gradient-23" x1="88.29" y1="234.68" x2="88.29" y2="219.74" xlink:href="#linear-gradient-13"/><clipPath id="clip-path" transform="translate(0 -272)"><rect id="SVGID" class="cls-1" x="515.77" y="278.87" width="30" height="30"/></clipPath><linearGradient id="linear-gradient-24" x1="163.87" y1="654.12" x2="163.87" y2="669.26" gradientUnits="userSpaceOnUse"><stop offset="0" stop-color="#693b93" stop-opacity="0.53"/><stop offset="1" stop-color="#693b93" stop-opacity="0.83"/><stop offset="1" stop-color="#693b93"/></linearGradient><linearGradient id="linear-gradient-25" x1="158.44" y1="651.68" x2="169.33" y2="651.68" xlink:href="#linear-gradient-24"/><linearGradient id="linear-gradient-26" x1="89.56" y1="628.2" x2="89.56" y2="630.79" xlink:href="#linear-gradient-24"/><linearGradient id="linear-gradient-27" x1="89.56" y1="631.97" x2="89.56" y2="647.38" xlink:href="#linear-gradient-24"/><linearGradient id="linear-gradient-28" x1="114.61" y1="588.99" x2="114.61" y2="602.64" gradientTransform="matrix(1, 0, 0, 1, 0, 0)" xlink:href="#linear-gradient-13"/><linearGradient id="linear-gradient-29" x1="771.37" y1="631.19" x2="771.37" y2="639.4" gradientUnits="userSpaceOnUse"><stop offset="0" stop-color="#693b93" stop-opacity="0.53"/><stop offset="1" stop-color="#693b93"/></linearGradient><linearGradient id="linear-gradient-30" x1="772.85" y1="627.73" x2="772.85" y2="637.15" xlink:href="#linear-gradient-29"/><linearGradient id="linear-gradient-31" x1="773.32" y1="626.57" x2="773.32" y2="640.57" xlink:href="#linear-gradient-29"/><linearGradient id="linear-gradient-32" x1="777.7" y1="630.77" x2="777.7" y2="638.61" xlink:href="#linear-gradient-29"/></defs><title>Skills</title><path class="cls-2" d="M584,296.5C540.33,344,454.8,466,462,574" transform="translate(0 -272)"/><path class="cls-3" d="M522.5,313.5c-43.67,47.5-76.7,162-69.5,270" transform="translate(0 -272)"/><path class="cls-4" d="M471,312c-19,66-34.5,237.5-34.5,291.5" transform="translate(0 -272)"/><path class="cls-5" d="M303.5,306C347.17,353.5,428.2,498.5,421,606.5" transform="translate(0 -272)"/><path class="cls-6" d="M365,306c43.67,47.5,72.2,202,65,310" transform="translate(0 -272)"/><path class="cls-7" d="M414,309c19.25,72.33,21,253.82,21,313" transform="translate(0 -272)"/><ellipse class="cls-8" cx="452" cy="303" rx="271" ry="165"/><circle class="cls-9" cx="305" cy="22" r="22"/><circle class="cls-9" cx="417" cy="22" r="22"/><circle class="cls-9" cx="472" cy="22" r="22"/><circle class="cls-9" cx="531" cy="22" r="22"/><circle class="cls-9" cx="586" cy="22" r="22"/><circle class="cls-9" cx="365" cy="22" r="22"/><rect class="cls-1" x="348" y="14" width="33" height="15"/><rect class="cls-1" x="404" y="9" width="26" height="26"/><rect class="cls-1" x="459" y="10" width="26" height="25"/><rect class="cls-1" x="512" y="17" width="39" height="11"/><rect class="cls-1" x="569" y="17" width="37" height="9"/><circle class="cls-10" cx="440" cy="266" r="90"/><path class="cls-11" d="M880.5,591.5c0,18.33-12.17,35.89-34.41,52S791.66,674,751.84,686.13C672.18,710.45,562.1,725.5,440.5,725.5s-231.68-15-311.34-39.37c-39.83-12.16-72-26.64-94.25-42.68S.5,609.83.5,591.5s12.17-35.89,34.41-52S89.33,509,129.16,496.87c79.66-24.32,189.73-39.37,311.34-39.37s231.68,15.05,311.34,39.37c39.82,12.16,72,26.64,94.25,42.68S880.5,573.17,880.5,591.5Z" transform="translate(0 -272)"/><path class="cls-12" d="M826.5,591.5c0,18.36-10.57,35.93-29.84,52S749.48,674,715,686.13c-69.06,24.32-164.5,39.37-270,39.37s-200.89-15-269.95-39.37c-34.53-12.16-62.44-26.62-81.71-42.66s-29.84-33.61-29.84-52,10.57-35.93,29.84-52,47.18-30.51,81.71-42.66c69.06-24.32,164.5-39.37,270-39.37s200.89,15.05,270,39.37c34.53,12.15,62.44,26.62,81.71,42.66S826.5,573.14,826.5,591.5Z" transform="translate(0 -272)"/><path class="cls-13" d="M802.5,591.5c0,18.38-9.62,36-27.15,52S732.45,674,701,686.14C638.22,710.45,551.41,725.5,455.5,725.5s-182.73-15-245.54-39.36c-31.41-12.16-56.79-26.62-74.31-42.66s-27.15-33.6-27.15-52,9.62-36,27.15-52S178.55,509,210,496.86c62.81-24.31,149.63-39.36,245.54-39.36S638.22,472.55,701,496.86c31.41,12.16,56.79,26.62,74.31,42.66S802.5,573.12,802.5,591.5Z" transform="translate(0 -272)"/><path class="cls-14" d="M597.5,522.5c0,75.61-68.22,137-152.5,137s-152.5-61.39-152.5-137,68.23-137,152.5-137S597.5,446.89,597.5,522.5Z" transform="translate(0 -272)"/><path class="cls-15" d="M591.5,558c0,22.38-16.32,42.75-43,57.55s-63.39,24-104,24-77.45-9.16-104-24S297.5,580.38,297.5,558s16.32-42.75,42.95-57.55S403.84,476.5,444.5,476.5s77.45,9.16,104,23.95S591.5,535.62,591.5,558Z" transform="translate(0 -272)"/><path class="cls-16" d="M853.09,545.75c0-1.55-1.66-3-4.22-3.94.59-3,.33-5.45-.83-6.23a1.58,1.58,0,0,0-.91-.26v1.06a.83.83,0,0,1,.46.13c.56.37.8,1.79.61,3.61,0,.45-.12.92-.21,1.41a15.35,15.35,0,0,0-2.6-.52,22.87,22.87,0,0,0-1.7-2.39c1.34-1.45,2.59-2.24,3.44-2.24v-1.07c-1.13,0-2.6.94-4.09,2.56-1.49-1.61-3-2.54-4.09-2.54v1.07c.84,0,2.1.78,3.44,2.22A20.92,20.92,0,0,0,840.7,541a16.75,16.75,0,0,0-2.61.52q-.14-.69-.21-1.38c-.2-1.83,0-3.25.6-3.62a.77.77,0,0,1,.47-.13v-1.06a1.63,1.63,0,0,0-.93.26c-1.15.78-1.41,3.19-.81,6.22-2.55.92-4.21,2.38-4.21,3.93s1.67,3,4.22,3.93c-.59,3-.32,5.46.83,6.23a1.63,1.63,0,0,0,.92.27c1.13,0,2.6-.94,4.09-2.56,1.49,1.61,3,2.54,4.1,2.54a1.55,1.55,0,0,0,.92-.27c1.15-.77,1.41-3.18.82-6.21C851.43,548.77,853.09,547.3,853.09,545.75Zm-5.33-3.19c-.16.64-.34,1.27-.55,1.89-.35-.78-.72-1.53-1.13-2.27.58.11,1.14.23,1.68.38Zm-1.87,5.09c-.31.62-.64,1.23-1,1.82a18.3,18.3,0,0,1-3.7,0,26.8,26.8,0,0,1-1.84-3.72A25.84,25.84,0,0,1,841.2,542a19,19,0,0,1,3.69,0c.34.57.67,1.17,1,1.81s.59,1.26.85,1.9C846.47,546.39,846.19,547,845.89,547.65Zm1.32-.62c.22.64.41,1.28.56,1.9a16.54,16.54,0,0,1-1.68.38C846.49,548.57,846.87,547.81,847.21,547Zm-4.16,5.1a17.88,17.88,0,0,1-1.13-1.53c.36,0,.74,0,1.12,0s.77,0,1.14,0A17.88,17.88,0,0,1,843.05,552.13Zm-3-2.82a13.62,13.62,0,0,1-1.68-.38c.15-.61.34-1.25.55-1.88q.25.57.54,1.14C839.61,548.58,839.81,549,840,549.31Zm3-9.94a17.9,17.9,0,0,1,1.14,1.53c-.37,0-.74,0-1.12,0s-.77,0-1.14,0C842.28,540.34,842.66,539.83,843,539.37Zm-3,2.82c-.4.73-.78,1.49-1.12,2.27-.21-.62-.4-1.25-.56-1.9A16.56,16.56,0,0,1,840,542.19Zm-3.7,6c-1.45-.71-2.39-1.66-2.39-2.41s.94-1.7,2.39-2.42c.35-.17.73-.33,1.13-.48a25.47,25.47,0,0,0,.92,2.91,25.54,25.54,0,0,0-.91,2.89A9.54,9.54,0,0,1,836.3,548.16Zm2.2,6.83c-.56-.37-.8-1.79-.61-3.61,0-.45.12-.93.21-1.41a16.61,16.61,0,0,0,2.6.52,22.87,22.87,0,0,0,1.7,2.39c-1.33,1.45-2.58,2.24-3.44,2.24a.84.84,0,0,1-.46-.13Zm9.72-3.64c.19,1.83-.05,3.24-.6,3.62a.79.79,0,0,1-.47.12c-.85,0-2.11-.78-3.44-2.22a22.66,22.66,0,0,0,1.69-2.38A16.42,16.42,0,0,0,848,550C848.1,550.44,848.17,550.91,848.22,551.35Zm1.57-3.19a11.65,11.65,0,0,1-1.13.49,25.91,25.91,0,0,0-.92-2.91,26,26,0,0,0,.91-2.9c.38.15.77.31,1.15.49,1.45.72,2.38,1.67,2.38,2.42S851.24,547.45,849.79,548.16Z" transform="translate(0 -272)"/><path class="cls-17" d="M843,547.93a1.75,1.75,0,0,0,1.33-.64,2.37,2.37,0,0,0,.54-1.54,2.4,2.4,0,0,0-.54-1.55,1.71,1.71,0,0,0-2.65,0,2.4,2.4,0,0,0-.55,1.55,2.38,2.38,0,0,0,.55,1.54A1.75,1.75,0,0,0,843,547.93Z" transform="translate(0 -272)"/><path class="cls-18" d="M782.61,505H772.39a1.52,1.52,0,0,0-1.39,1.63v11.91a1.52,1.52,0,0,0,1.39,1.62h10.22a1.52,1.52,0,0,0,1.39-1.62V506.62A1.52,1.52,0,0,0,782.61,505Zm-4.53,11.83c0,1.47-.75,2.14-1.83,2.14a1.91,1.91,0,0,1-1.84-1.3l1-.7c.19.4.37.73.79.73s.65-.18.65-.9V512h1.23ZM781,519a2.32,2.32,0,0,1-2.23-1.45l1-.67a1.35,1.35,0,0,0,1.21.87.74.74,0,0,0,.83-.71c0-.49-.33-.66-.89-1l-.31-.15a2.19,2.19,0,0,1-1.46-2.15,1.83,1.83,0,0,1,3.52-.74l-1,.71c-.21-.44-.44-.61-.79-.61a.57.57,0,0,0-.58.61c0,.43.22.6.75.87l.3.15c1,.52,1.63,1,1.63,2.24A1.87,1.87,0,0,1,781,519Z" transform="translate(0 -272)"/><path class="cls-19" d="M769,675.25c-1.68,0-3,1.65-3,3.67a4,4,0,0,0,1.27,3,3.5,3.5,0,0,0-.94,1.31,4.29,4.29,0,0,0-.33,1.67,3.91,3.91,0,0,0,1.27,3,3.61,3.61,0,0,0-.94,1.32,4.24,4.24,0,0,0-.33,1.66c0,2,1.35,3.67,3,3.67s3-1.65,3-3.67v-3.09a2.74,2.74,0,0,0,1.9.8c1.68,0,3-1.65,3-3.66a4.29,4.29,0,0,0-.33-1.67,3.5,3.5,0,0,0-.94-1.31,3.61,3.61,0,0,0,.94-1.32,4.28,4.28,0,0,0,.33-1.66c0-2-1.35-3.67-3-3.67Zm-1.89,3.67a2.12,2.12,0,0,1,1.89-2.3h1.9v4.59H769A2.12,2.12,0,0,1,767.14,678.92Zm6.83,2.29h-1.9v-4.59H774a2.34,2.34,0,0,1,0,4.59Zm-6.83,3.67a2.12,2.12,0,0,1,1.9-2.3h1.89v4.59H769a2.12,2.12,0,0,1-1.89-2.29Zm4.93,0a1.93,1.93,0,1,1,1.9,2.29,2.12,2.12,0,0,1-1.9-2.29Zm-4.93,6a2.12,2.12,0,0,1,1.9-2.29h1.89v2.29a1.93,1.93,0,1,1-3.79,0Z" transform="translate(0 -272)"/><path class="cls-20" d="M844.33,602.61h-9.07a2.47,2.47,0,0,0-2.26,2.64v10.19a2.47,2.47,0,0,0,2.26,2.63h9.07a2.47,2.47,0,0,0,2.26-2.63V605.25A2.47,2.47,0,0,0,844.33,602.61Z" transform="translate(0 -272)"/><path class="cls-21" d="M840.14,606.68l-1.69,3.26,1.81,3.47a.08.08,0,0,1,0,.08l0,0h-1.37c-.08,0-.13,0-.16-.08l-.36-.82c-.11-.25-.22-.49-.34-.73l0-.11c-.14-.28-.27-.57-.41-.86h0c-.12.29-.24.57-.37.85l-.39.85-.39.83a.1.1,0,0,1-.11.07H835s0,0,0,0a.17.17,0,0,1,0-.07l1.76-3.37L835,606.67a.06.06,0,0,1,0-.07l0,0h1.32l.08,0,.06.06c.11.28.23.57.36.85s.27.56.41.84.26.55.38.84h0c.12-.29.25-.57.37-.85l.39-.84c.13-.27.25-.55.37-.83a.43.43,0,0,1,0-.07l.08,0h1.22l0,0v0a0,0,0,0,1,0,0h0Zm2.68,7h-.06a2.52,2.52,0,0,1-1.22-.29,2.18,2.18,0,0,1-.85-.9,3.32,3.32,0,0,1-.31-1.46v0a3.14,3.14,0,0,1,.31-1.39,2.5,2.5,0,0,1,.87-1l0,0a2.66,2.66,0,0,1,1.44-.38h.29v-2.1c0-.05,0-.07,0-.07h1.17l0,0s0,0,0,0v6.31c0,.1,0,.22,0,.34v.43a.15.15,0,0,1,0,.07l0,0a4.57,4.57,0,0,1-.92.32A3.75,3.75,0,0,1,842.82,613.64Zm.5-1.31v-2.91l-.15,0H843a1.27,1.27,0,0,0-1.12.66,1.55,1.55,0,0,0-.18.8v0a2,2,0,0,0,.09.68,1.27,1.27,0,0,0,.26.47,1,1,0,0,0,.38.26,1.27,1.27,0,0,0,.47.09h.24l.17,0Z" transform="translate(0 -272)"/><path class="cls-22" d="M723.62,518.45l3.21-2.15a1.59,1.59,0,0,1,2.45,1.25,2,2,0,0,1-.75,2c-1.92,1.3-3.84,2.61-5.77,3.89a1.36,1.36,0,0,1-1.77-.17,2,2,0,0,1-.59-2,2.05,2.05,0,0,1,1-1.31C722.11,519.48,722.86,519,723.62,518.45Z" transform="translate(0 -272)"/><path class="cls-23" d="M724.41,517.92c-1.07-.72-2.14-1.43-3.2-2.16a2.08,2.08,0,0,1-.29-3.1,1.44,1.44,0,0,1,1.84-.24c1.93,1.29,3.86,2.58,5.77,3.9a1.85,1.85,0,0,1,.76,1.86,1.78,1.78,0,0,1-1.15,1.58,1.65,1.65,0,0,1-1.45-.3C725.94,518.93,725.17,518.43,724.41,517.92Z" transform="translate(0 -272)"/><path class="cls-24" d="M714.69,517.41l-2.05,1.37c-.4.26-.79.54-1.2.8a1.51,1.51,0,0,1-2.23-.71,2.08,2.08,0,0,1,.6-2.57c1.9-1.29,3.82-2.58,5.73-3.86a1.34,1.34,0,0,1,1.74.13,2,2,0,0,1,.64,2,2.54,2.54,0,0,1-.25.58,3.23,3.23,0,0,1-.66.67C716.25,516.37,715.47,516.89,714.69,517.41Z" transform="translate(0 -272)"/><path class="cls-25" d="M713.91,517.92l2,1.39c.39.28.79.54,1.19.81a2.08,2.08,0,0,1,.59,2.61,1.5,1.5,0,0,1-2.2.68q-2.88-1.9-5.74-3.86a1.89,1.89,0,0,1-.78-1.82,1.83,1.83,0,0,1,1.17-1.64,1.53,1.53,0,0,1,.56,0,2.94,2.94,0,0,1,.83.33C712.36,516.88,713.13,517.41,713.91,517.92Z" transform="translate(0 -272)"/><path class="cls-26" d="M187.5,484.63h11v13.48h-11Zm-.5,14.11h12V484H187Zm7.86-9.49c0-.05,0-.07.06-.07h.79s0,0,0,.07v5s0,.08,0,.08h-.78c-.05,0-.06,0-.06-.09v-5Zm-.06-1.43a.71.71,0,0,1,.16-.45.45.45,0,0,1,.36-.19.48.48,0,0,1,.36.19.75.75,0,0,1,.14.45.57.57,0,0,1,0,.26.65.65,0,0,1-.11.22.52.52,0,0,1-.17.13.39.39,0,0,1-.21,0,.32.32,0,0,1-.19,0,.46.46,0,0,1-.17-.14.57.57,0,0,1-.11-.22.69.69,0,0,1,0-.25Zm-2.25,3.5c-.14-.7-.47-2.22-.59-3h0c-.1.74-.37,2-.58,3Zm-1.39,1-.39,1.88s0,.07-.07.07H190c-.05,0-.06,0-.05-.1l1.42-6.26a2.24,2.24,0,0,0,0-.52c0-.05,0-.06,0-.06h1.05s.05,0,.06.06l1.59,6.79c0,.05,0,.09,0,.09h-.83a.07.07,0,0,1-.07-.06l-.41-1.89h-1.61Z" transform="translate(0 -272)"/><path class="cls-27" d="M82,522.57a1.4,1.4,0,0,1,.31-.89,1,1,0,0,1,.74-.36H93.52a.9.9,0,0,1,.4.09,1.14,1.14,0,0,1,.35.27,1.47,1.47,0,0,1,.22.41,1.27,1.27,0,0,1,.08.48V535a1.27,1.27,0,0,1-.08.48,1.47,1.47,0,0,1-.22.41,1.23,1.23,0,0,1-.34.27,1,1,0,0,1-.41.09H83.05a.93.93,0,0,1-.4-.09,1,1,0,0,1-.34-.27,1.27,1.27,0,0,1-.23-.41A1.5,1.5,0,0,1,82,535ZM87,527h1.7v1a1.91,1.91,0,0,1,1.82-1.11c1.81,0,2.24,1.17,2.24,3.3v4H90.91v-3.47c0-1.22-.25-1.9-.87-1.9-.87,0-1.23.74-1.23,1.9v3.47H87Zm-3.15,7.06h1.84v-7.16H83.83v7.16Zm2.1-9.49a2,2,0,0,1-.08.54,1.43,1.43,0,0,1-.26.47,1.24,1.24,0,0,1-.38.31,1,1,0,0,1-.92,0,1.24,1.24,0,0,1-.38-.31,1.43,1.43,0,0,1-.26-.47,2,2,0,0,1-.08-.54,1.54,1.54,0,0,1,.36-1,1.07,1.07,0,0,1,.82-.4,1.1,1.1,0,0,1,.83.4A1.53,1.53,0,0,1,85.93,524.59Z" transform="translate(0 -272)"/><path class="cls-28" d="M296,305.26l-2.13-23.84H317.2l-2.13,23.84-9.56,2.65Z" transform="translate(0 -272)"/><path class="cls-29" d="M305.52,305.89l7.73-2.15,1.82-20.37h-9.55Z" transform="translate(0 -272)"/><path class="cls-30" d="M305.52,292.21h-3.87l-.27-3h4.14v-2.93h-7.33l.07.79.72,8.06h6.54Zm0,7.6h0l-3.26-.88L302,296.6h-2.93l.41,4.59,6,1.66h0Z" transform="translate(0 -272)"/><path class="cls-21" d="M305.51,292.21v2.93h3.6l-.34,3.79-3.26.88v3l6-1.66.05-.49.69-7.7.07-.79h-6.8Zm0-5.92v2.93h7.06l.06-.66.14-1.48.07-.79Z" transform="translate(0 -272)"/><path class="cls-31" d="M355.64,305.35l-2.12-23.84h23.36l-2.13,23.84L365.18,308Z" transform="translate(0 -272)"/><path class="cls-32" d="M365.2,306l7.73-2.14,1.82-20.37H365.2Z" transform="translate(0 -272)"/><path class="cls-21" d="M365.2,292.1h3.87l.26-3H365.2v-2.92h7.33l-.07.78-.72,8.06H365.2Z" transform="translate(0 -272)"/><path class="cls-30" d="M365.21,299.69h0l-3.25-.87-.21-2.34H358.8l.41,4.59,6,1.67h0Z" transform="translate(0 -272)"/><path class="cls-21" d="M368.82,294.9l-.35,3.91-3.27.88v3.05l6-1.67,0-.49.51-5.68Z" transform="translate(0 -272)"/><path class="cls-30" d="M365.21,286.18v2.92h-7.07l-.06-.66L358,287l-.07-.78Zm0,5.92V295H362l-.06-.66-.13-1.48-.07-.78Z" transform="translate(0 -272)"/><path class="cls-33" d="M404.64,281.94h25v25h-25Z" transform="translate(0 -272)"/><path d="M411.22,302.83l1.91-1.15c.37.65.71,1.2,1.51,1.2s1.26-.3,1.26-1.47v-8h2.35v8a3.19,3.19,0,0,1-3.51,3.54,3.63,3.63,0,0,1-3.52-2.15m8.31-.25,1.91-1.11a2.54,2.54,0,0,0,2.31,1.43c1,0,1.6-.49,1.6-1.16s-.64-1.09-1.71-1.56l-.59-.25c-1.7-.72-2.82-1.63-2.82-3.54a3.14,3.14,0,0,1,3.44-3.1,3.48,3.48,0,0,1,3.34,1.87l-1.83,1.18a1.6,1.6,0,0,0-1.51-1,1,1,0,0,0-1.12,1c0,.7.43,1,1.44,1.43l.59.25c2,.85,3.12,1.73,3.12,3.69,0,2.11-1.66,3.27-3.9,3.27a4.49,4.49,0,0,1-4.27-2.4" transform="translate(0 -272)"/><circle class="cls-34" cx="472.13" cy="22.48" r="2.71"/><path class="cls-34" d="M482.42,290c-.53-.19-1.07-.38-1.64-.54.14-.57.26-1.14.35-1.69.5-3.14-.05-5.34-1.57-6.2a3,3,0,0,0-1.52-.38c-1.66,0-3.77,1.24-5.91,3.3-2.14-2.06-4.25-3.3-5.92-3.3a3,3,0,0,0-1.52.38c-1.52.88-2.06,3.09-1.56,6.2.09.55.21,1.12.35,1.69a16.57,16.57,0,0,0-1.64.54c-3,1.14-4.58,2.71-4.58,4.47s1.64,3.33,4.58,4.47c.53.19,1.07.38,1.64.54-.14.57-.26,1.14-.35,1.69-.5,3.13,0,5.34,1.56,6.2a3,3,0,0,0,1.52.38c1.69,0,3.8-1.24,5.92-3.3,2.14,2.06,4.25,3.3,5.91,3.3a3,3,0,0,0,1.52-.38c1.52-.88,2.07-3.09,1.57-6.2-.09-.55-.21-1.12-.35-1.69a16.57,16.57,0,0,0,1.64-.54c3-1.14,4.58-2.71,4.58-4.47S485.38,291.15,482.42,290Zm-3.52-7.24c1,.57,1.31,2.33.9,4.82a14.73,14.73,0,0,1-.33,1.57,27.73,27.73,0,0,0-3.92-.6,33.9,33.9,0,0,0-2.47-3.08c1.76-1.74,3.54-2.93,5-2.93A1.63,1.63,0,0,1,478.9,282.77Zm-2.66,14.08c-.43.77-.93,1.53-1.45,2.29-.88.07-1.76.09-2.66.09s-1.81,0-2.66-.09c-.52-.76-1-1.52-1.43-2.29s-.88-1.59-1.26-2.37c.38-.78.81-1.59,1.26-2.38s.93-1.52,1.45-2.28c.88-.07,1.76-.09,2.66-.09s1.81,0,2.66.09c.53.76,1,1.52,1.43,2.28s.88,1.6,1.26,2.38C477.09,295.26,476.69,296.05,476.24,296.85Zm2-.78c.36.83.64,1.64.9,2.45-.8.19-1.66.33-2.56.45.28-.45.59-.93.85-1.43S478,296.55,478.21,296.07Zm-6.08,6.44c-.57-.62-1.12-1.28-1.64-2,.55,0,1.09,0,1.64,0s1.09,0,1.64,0C473.25,301.23,472.7,301.89,472.13,302.51ZM467.71,299c-.9-.12-1.76-.27-2.57-.46.27-.78.55-1.61.91-2.44.26.47.52,1,.81,1.45S467.43,298.47,467.71,299Zm-1.66-6.06c-.36-.83-.64-1.64-.91-2.45.81-.19,1.67-.33,2.57-.45-.28.45-.59.93-.85,1.42S466.31,292.41,466.05,292.89Zm6.08-6.44c.57.62,1.12,1.28,1.64,2-.55,0-1.09-.05-1.64-.05s-1.09,0-1.64.05C471,287.73,471.56,287.07,472.13,286.45Zm5.27,5-.85-1.43c.9.12,1.76.26,2.56.45-.26.79-.54,1.62-.9,2.45C478,292.41,477.69,291.91,477.4,291.44Zm-12.94-3.85c-.41-2.49-.08-4.25.9-4.82a1.63,1.63,0,0,1,.83-.22c1.43,0,3.21,1.17,5,2.93a31.34,31.34,0,0,0-2.47,3.08,32.55,32.55,0,0,0-3.92.6C464.65,288.61,464.55,288.09,464.46,287.59Zm-5.87,6.89c0-1.12,1.35-2.3,3.73-3.18a13.53,13.53,0,0,1,1.52-.5,34.38,34.38,0,0,0,1.42,3.7,28.93,28.93,0,0,0-1.42,3.69C460.56,297.24,458.59,295.81,458.59,294.48Zm6.77,11.71c-1-.57-1.31-2.33-.9-4.82a14.73,14.73,0,0,1,.33-1.57,26.17,26.17,0,0,0,3.92.59,34.09,34.09,0,0,0,2.47,3.09c-1.76,1.74-3.54,2.92-5,2.92A1.63,1.63,0,0,1,465.36,306.19Zm14.44-4.82c.41,2.49.07,4.25-.9,4.82a1.63,1.63,0,0,1-.83.21c-1.43,0-3.21-1.16-5-2.92a31.52,31.52,0,0,0,2.47-3.09,31,31,0,0,0,3.92-.59C479.61,300.35,479.71,300.87,479.8,301.37Zm2.14-3.71a14.24,14.24,0,0,1-1.52.5,33.72,33.72,0,0,0-1.43-3.7,30.63,30.63,0,0,0,1.43-3.69c3.28,1,5.25,2.38,5.25,3.71C485.67,295.6,484.29,296.78,481.94,297.66Z" transform="translate(0 -272)"/><circle class="cls-21" cx="531" cy="22" r="14"/><g class="cls-35"><path class="cls-36" d="M592.46,290.68h-5.21v.56c1.63,0,1.89.34,1.89,2.41v3.72c0,2.07-.26,2.44-1.89,2.44-1.24-.17-2.09-.84-3.25-2.12l-1.34-1.45c1.8-.32,2.76-1.46,2.76-2.74,0-1.6-1.36-2.82-3.92-2.82h-5.12v.56c1.63,0,1.89.34,1.89,2.41v3.72c0,2.07-.26,2.44-1.89,2.44v.56h5.79v-.56c-1.63,0-1.89-.37-1.89-2.44v-1.05h.49l3.23,4.05h8.46c4.16,0,6-2.21,6-4.86s-1.8-4.83-6-4.83Zm-12.18,4.74v-3.86h1.19a1.93,1.93,0,0,1,0,3.86Zm12.27,4h-.21c-1,0-1.19-.26-1.19-1.59v-6.31h1.4c3,0,3.57,2.21,3.57,3.92S595.57,299.46,592.55,299.46Zm-32.36-3,2-5.93c.58-1.72.32-2.21-1.54-2.21v-.58h5.47v.58c-1.83,0-2.27.43-3,2.56l-3.31,9.94h-.38l-3-9.1-3,9.1h-.38l-3.23-9.94c-.69-2.13-1.16-2.56-2.85-2.56v-.58h6.46v.58c-1.72,0-2.18.4-1.57,2.21l2,5.93,2.93-8.72h.56l2.88,8.72Zm9.88,4.24c-3.2,0-5.81-2.35-5.81-5.23s2.61-5.21,5.81-5.21,5.82,2.36,5.82,5.21S573.27,300.74,570.07,300.74Zm0-9.53c-2.67,0-3.6,2.41-3.6,4.3s.93,4.3,3.6,4.3,3.64-2.38,3.64-4.3-.93-4.3-3.64-4.3Z" transform="translate(0 -272)"/><path class="cls-37" d="M605.6,299.78v.59h-6.66v-.59c1.95,0,2.3-.49,2.3-3.4v-4.65c0-2.91-.35-3.37-2.3-3.37v-.58h6c3,0,4.66,1.54,4.66,3.6S608,295,605,295H603.3v1.42c0,2.91.35,3.4,2.3,3.4Zm-.64-11H603.3v5.06H605a2.27,2.27,0,0,0,2.39-2.5A2.31,2.31,0,0,0,605,288.82Zm24.63,8.81-.15.53c-.26,1-.58,1.3-2.64,1.3h-.41c-1.51,0-1.77-.34-1.77-2.41v-1.34c2.27,0,2.44.21,2.44,1.72h.55V293.1h-.55c0,1.51-.17,1.71-2.44,1.71v-3.25h1.6c2.06,0,2.38.34,2.64,1.3l.15.56h.46l-.2-2.74h-8.55v.56c1.63,0,1.89.34,1.89,2.41v3.72c0,1.89-.22,2.37-1.5,2.43-1.22-.18-2.06-.85-3.21-2.11l-1.34-1.45c1.81-.32,2.77-1.46,2.77-2.74,0-1.6-1.37-2.82-3.93-2.82h-5.12v.56c1.63,0,1.89.34,1.89,2.41v3.72c0,2.07-.26,2.44-1.89,2.44v.56h5.79v-.56c-1.63,0-1.89-.37-1.89-2.44v-1.05h.49l3.23,4.05h12l.18-2.74Zm-15.41-2.21v-3.86h1.19a1.93,1.93,0,0,1,0,3.86Zm21.31,5.32a4.26,4.26,0,0,1-2.61-1,2.13,2.13,0,0,0-.47,1h-.55v-4h.58a3.22,3.22,0,0,0,3.29,3c.93,0,1.68-.52,1.68-1.39s-.67-1.34-1.86-1.89l-1.66-.79a3.16,3.16,0,0,1-2-2.79,2.86,2.86,0,0,1,3.11-2.59,3.64,3.64,0,0,1,2.27.76,1.76,1.76,0,0,0,.38-.78h.55v3.43h-.61c-.21-1.37-1-2.5-2.5-2.5-.82,0-1.57.46-1.57,1.19s.61,1.16,2,1.8l1.6.79a3,3,0,0,1,1.95,2.61,3.29,3.29,0,0,1-3.55,3.11Zm9,0a4.29,4.29,0,0,1-2.62-1,2.13,2.13,0,0,0-.46,1h-.56v-4h.59a3.22,3.22,0,0,0,3.28,3c.93,0,1.69-.52,1.69-1.39s-.67-1.34-1.86-1.89l-1.66-.79a3.17,3.17,0,0,1-2-2.79,2.86,2.86,0,0,1,3.11-2.59,3.62,3.62,0,0,1,2.27.76,1.66,1.66,0,0,0,.38-.78h.55v3.43h-.61c-.2-1.37-1-2.5-2.5-2.5-.81,0-1.57.46-1.57,1.19s.61,1.16,2,1.8l1.6.79a3,3,0,0,1,2,2.61,3.29,3.29,0,0,1-3.55,3.11Z" transform="translate(0 -272)"/><path class="cls-36" d="M517.91,293.87a12.88,12.88,0,0,0,7.25,11.59L519,288.64a12.6,12.6,0,0,0-1.11,5.23Zm21.55-.64a6.73,6.73,0,0,0-1.06-3.55,6,6,0,0,1-1.26-3,2.23,2.23,0,0,1,2.16-2.29h.16A12.87,12.87,0,0,0,520,286.81h.83c1.35,0,3.43-.16,3.43-.16a.53.53,0,0,1,.08,1.06s-.69.08-1.47.12l4.69,13.94,2.81-8.45-2-5.49c-.7,0-1.35-.12-1.35-.12a.53.53,0,0,1,.08-1.06s2.12.16,3.39.16,3.43-.16,3.43-.16a.53.53,0,0,1,.08,1.06s-.7.08-1.47.12l4.65,13.83,1.28-4.29a15.28,15.28,0,0,0,1-4.15Z" transform="translate(0 -272)"/><path class="cls-36" d="M531,295l-3.86,11.22a12.74,12.74,0,0,0,3.63.52,12.91,12.91,0,0,0,4.28-.73.56.56,0,0,1-.09-.17Zm11.07-7.3a10.89,10.89,0,0,1,.08,1.32,12,12,0,0,1-1,4.61L537.24,305a12.89,12.89,0,0,0,4.83-17.3Z" transform="translate(0 -272)"/><path class="cls-36" d="M530.77,278.87a15,15,0,1,0,15,15A15,15,0,0,0,530.77,278.87Zm0,29.32a14.32,14.32,0,1,1,14.32-14.32,14.33,14.33,0,0,1-14.32,14.32Z" transform="translate(0 -272)"/></g><path class="cls-21" d="M586,279.69A15.07,15.07,0,0,0,581.28,309c.75.13,1-.33,1-.73s0-1.31,0-2.56c-4.17.91-5.06-2-5.06-2a4,4,0,0,0-1.66-2.2c-1.36-.94.1-.92.1-.92a3.16,3.16,0,0,1,2.3,1.55,3.18,3.18,0,0,0,4.36,1.25,3.25,3.25,0,0,1,1-2c-3.33-.38-6.84-1.67-6.84-7.44a5.82,5.82,0,0,1,1.55-4,5.4,5.4,0,0,1,.15-4s1.26-.4,4.12,1.54A14.43,14.43,0,0,1,586,287a14,14,0,0,1,3.75.51c2.87-2,4.12-1.55,4.12-1.55a5.4,5.4,0,0,1,.15,4,5.78,5.78,0,0,1,1.54,4c0,5.78-3.5,7.06-6.84,7.43a3.6,3.6,0,0,1,1,2.79c0,2,0,3.64,0,4.13s.27.87,1,.72A15.07,15.07,0,0,0,586,279.69Z" transform="translate(0 -272)"/><path class="cls-38" d="M170.55,654.12l-1.22,13.62-5.46,1.52-5.46-1.52-1.21-13.62Z" transform="translate(0 -272)"/><path class="cls-21" d="M161.51,658.57h2.36V656.9h-4.19l0,.45.41,4.61h3.74v-1.68h-2.21Zm.38,4.22h-1.68l.23,2.63,3.43,1h0v-1.73h0l-1.86-.51-.12-1.33Z" transform="translate(0 -272)"/><path class="cls-39" d="M158.44,650.41h.85v.84h.78v-.84h.85V653h-.85v-.85h-.78V653h-.85v-2.54Zm3.59.84h-.74v-.84h2.34v.84h-.75V653H162v-1.7Zm2-.84h.89l.54.89.55-.89h.88V653H166v-1.26l-.59.91h0l-.59-.91V653H164Zm3.29,0h.85v1.7h1.19V653h-2v-2.54Z" transform="translate(0 -272)"/><path class="cls-21" d="M163.87,662h2.06l-.2,2.16-1.86.51v1.74l3.42-1,0-.29.39-4.4,0-.45h-3.88V662Zm0-3.39h4l0-.37.08-.85,0-.45h-4.19v1.67Z" transform="translate(0 -272)"/><path class="cls-40" d="M93.41,628.91H92.28l1.18,1.27v.61H91v-.71h1.17L91,628.81v-.61h2.37Zm-2.85,0H89.43l1.18,1.27v.61H88.19v-.71h1.17l-1.17-1.27v-.61h2.37Zm-2.82,0H86.52v1.11h1.22v.74H85.66V628.2h2.08Z" transform="translate(0 -272)"/><path class="cls-41" d="M84,645.84,82.76,632H96.35l-1.24,13.87-5.56,1.54Z" transform="translate(0 -272)"/><path class="cls-21" d="M89.56,638.13h2.25l.15-1.74h-2.4v-1.7h4.26l0,.46-.41,4.68H89.56Z" transform="translate(0 -272)"/><path class="cls-21" d="M89.57,642.55h0L87.67,642l-.13-1.36h-1.7l.24,2.68,3.48,1h0v-1.77Z" transform="translate(0 -272)"/><path class="cls-21" d="M91.66,639.76l-.2,2.28-1.9.51v1.77l3.49-1,0-.29.29-3.31Z" transform="translate(0 -272)"/><path class="cls-21" d="M89.56,634.69v1.7H85.45l0-.38-.08-.86,0-.46Zm0,3.44v1.7H87.69l0-.38-.07-.86,0-.46Z" transform="translate(0 -272)"/><path class="cls-42" d="M122,593a4.88,4.88,0,0,1-2.17-1.52,6.51,6.51,0,0,0-5.21-2.47,5.36,5.36,0,0,0-5.68,4.54,3.69,3.69,0,0,1,4-1.69,4.9,4.9,0,0,1,2.17,1.53,6.54,6.54,0,0,0,5.21,2.43,5.35,5.35,0,0,0,5.68-4.54A3.65,3.65,0,0,1,122,593Zm-14.76,5.65a4.81,4.81,0,0,1,2.17,1.52,6.53,6.53,0,0,0,5.21,2.47,5.37,5.37,0,0,0,5.68-4.54,3.68,3.68,0,0,1-4,1.69,4.84,4.84,0,0,1-2.16-1.54,6.63,6.63,0,0,0-5.22-2.43,5.36,5.36,0,0,0-5.67,4.55A3.63,3.63,0,0,1,107.23,598.64Z" transform="translate(0 -272)"/><path class="cls-43" d="M773.42,634.08l-1.75,5.08a5.87,5.87,0,0,0,3.59-.09l0-.08Zm-5.93-.51a5.8,5.8,0,0,0,3.28,5.24L768,631.19A5.74,5.74,0,0,0,767.49,633.57Z" transform="translate(0 -272)"/><path class="cls-44" d="M777.26,633.27a3.16,3.16,0,0,0-.48-1.61,2.67,2.67,0,0,1-.58-1.37,1,1,0,0,1,1-1h.08a5.84,5.84,0,0,0-8.24.36,7,7,0,0,0-.58.74h.38c.61,0,1.55-.08,1.55-.08a.25.25,0,0,1,.26.23.24.24,0,0,1-.22.25s-.31,0-.67.06l2.13,6.32,1.28-3.83-.91-2.49c-.32,0-.62-.06-.62-.06a.23.23,0,0,1-.21-.26.24.24,0,0,1,.25-.22s1,.08,1.54.08,1.55-.08,1.55-.08a.25.25,0,0,1,.26.23.24.24,0,0,1-.22.25s-.32,0-.67.06l2.11,6.27.6-1.91A6.61,6.61,0,0,0,777.26,633.27Z" transform="translate(0 -272)"/><path class="cls-45" d="M773.32,626.57a7,7,0,1,0,7,7A7,7,0,0,0,773.32,626.57Zm5.45,10.67a6.56,6.56,0,0,1-9.13,1.78,6.58,6.58,0,0,1-1.78-9.13A6.58,6.58,0,0,1,779.38,631,6.55,6.55,0,0,1,778.77,637.24Z" transform="translate(0 -272)"/><path class="cls-46" d="M778.48,631.37a5.37,5.37,0,0,1-.45,2.09l-1.78,5.15a5.84,5.84,0,0,0,2.19-7.84C778.46,631,778.48,631.17,778.48,631.37Z" transform="translate(0 -272)"/><text class="cls-47" transform="translate(387.08 299.03)">SK</text></svg>